<?xml version="1.0" standalone="no"?>
<!DOCTYPE svg PUBLIC "-//W3C//DTD SVG 20010904//EN"
 "http://www.w3.org/TR/2001/REC-SVG-20010904/DTD/svg10.dtd">
<svg version="1.0" xmlns="http://www.w3.org/2000/svg"
 width="1024.000000pt" height="1024.000000pt" viewBox="0 0 1024.000000 1024.000000"
 preserveAspectRatio="xMidYMid meet">
<metadata>
Created by potrace 1.11, written by Peter Selinger 2001-2013
</metadata>
<g transform="translate(0.000000,1024.000000) scale(0.100000,-0.100000)"
fill="#000000" stroke="none">
<path d="M749 10236 c-2 -2 -20 -7 -39 -10 -130 -20 -294 -98 -402 -190 -153
-131 -242 -279 -289 -481 -18 -77 -18 -229 -16 -4455 1 -2406 6 -4388 10
-4405 23 -90 62 -190 102 -260 25 -43 49 -82 53 -85 5 -3 21 -23 38 -44 69
-93 270 -231 379 -261 17 -5 33 -9 38 -10 4 -2 8 -3 10 -5 3 -2 37 -10 62 -13
12 -2 26 -6 32 -10 15 -10 8781 -4 8818 6 194 50 328 125 454 256 106 109 176
234 216 386 l23 90 -1 4385 c-1 2412 -5 4394 -9 4405 -3 11 -9 34 -13 50 -41
178 -167 367 -325 487 -42 32 -182 107 -225 120 -145 45 172 42 -4526 45
-2412 2 -4388 1 -4390 -1z"/>
</g>
</svg>
